{
  "accessors": [
    {
      "bufferView": 2,
      "componentType": 5126,
      "count": 12129,
      "max": [
        37.66608428955078,
        10.35744857788086,
        75.68700408935547
      ],
      "min": [
        -39.56330871582031,
        -10.357473373413086,
        -25.45215606689453
      ],
      "type": "VEC3"
    },
    {
      "bufferView": 2,
      "byteOffset": 145548,
      "componentType": 5126,
      "count": 12129,
      "max": [
        0.9999973773956299,
        0.99996417760849,
        0.9999998211860657
      ],
      "min": [
        -0.9999629855155945,
        -0.99996417760849,
        -0.9999469518661499
      ],
      "type": "VEC3"
    },
    {
      "bufferView": 1,
      "componentType": 5126,
      "count": 12129,
      "max": [
        0.9822427034378052,
        0.9824404120445251
      ],
      "min": [
        0.027338672429323196,
        0.023153800517320633
      ],
      "type": "VEC2"
    },
    {
      "bufferView": 0,
      "componentType": 5125,
      "count": 67968,
      "type": "SCALAR"
    }
  ],
  "asset": {
    "extras": {
      "author": "BaluCG (https://sketchfab.com/BaluCG)",
      "license": "SKETCHFAB Standard (https://sketchfab.com/licenses)",
      "source": "https://sketchfab.com/3d-models/symbol004-flame-11624f1a81814930b47c71520dbf9060",
      "title": "Symbol004 Flame"
    },
    "generator": "Sketchfab-14.23.0",
    "version": "2.0"
  },
  "bufferViews": [
    {
      "buffer": 0,
      "byteLength": 271872,
      "name": "floatBufferViews",
      "target": 34963
    },
    {
      "buffer": 0,
      "byteLength": 97032,
      "byteOffset": 271872,
      "byteStride": 8,
      "name": "floatBufferViews",
      "target": 34962
    },
    {
      "buffer": 0,
      "byteLength": 291096,
      "byteOffset": 368904,
      "byteStride": 12,
      "name": "floatBufferViews",
      "target": 34962
    }
  ],
  "buffers": [
    {
      "byteLength": 660000,
      "uri": "scene.bin"
    }
  ],
  "images": [
    {
      "uri": "textures/FlameSymbol_baseColor.png"
    },
    {
      "uri": "textures/FlameSymbol_metallicRoughness.png"
    }
  ],
  "materials": [
    {
      "doubleSided": true,
      "name": "FlameSymbol",
      "pbrMetallicRoughness": {
        "baseColorTexture": {
          "index": 0
        },
        "metallicFactor": 0.07783061044380332,
        "metallicRoughnessTexture": {
          "index": 1
        },
        "roughnessFactor": 0.9492504763792086
      }
    }
  ],
  "meshes": [
    {
      "name": "FlameSymbol_FlameSymbol_0",
      "primitives": [
        {
          "attributes": {
            "NORMAL": 1,
            "POSITION": 0,
            "TEXCOORD_0": 2
          },
          "indices": 3,
          "material": 0,
          "mode": 4
        }
      ]
    }
  ],
  "nodes": [
    {
      "children": [
        1
      ],
      "matrix": [
        1.0,
        0.0,
        0.0,
        0.0,
        0.0,
        2.220446049250313e-16,
        -1.0,
        0.0,
        0.0,
        1.0,
        2.220446049250313e-16,
        0.0,
        0.0,
        0.0,
        0.0,
        1.0
      ],
      "name": "Sketchfab_model"
    },
    {
      "children": [
        2
      ],
      "matrix": [
        0.009999999776482582,
        0.0,
        0.0,
        0.0,
        0.0,
        0.0,
        0.009999999776482582,
        0.0,
        0.0,
        -0.009999999776482582,
        0.0,
        0.0,
        0.0,
        0.0,
        0.0,
        1.0
      ],
      "name": "c326956bdace4cdf9c8195412529a3bf.fbx"
    },
    {
      "children": [
        3
      ],
      "name": "RootNode"
    },
    {
      "children": [
        4
      ],
      "matrix": [
        1.0,
        0.0,
        0.0,
        0.0,
        0.0,
        2.220446049250313e-16,
        -1.0,
        0.0,
        0.0,
        1.0,
        2.220446049250313e-16,
        0.0,
        0.0,
        0.0,
        0.0,
        1.0
      ],
      "name": "FlameSymbol"
    },
    {
      "mesh": 0,
      "name": "FlameSymbol_FlameSymbol_0"
    }
  ],
  "samplers": [
    {
      "magFilter": 9729,
      "minFilter": 9987,
      "wrapS": 10497,
      "wrapT": 10497
    }
  ],
  "scene": 0,
  "scenes": [
    {
      "name": "Sketchfab_Scene",
      "nodes": [
        0
      ]
    }
  ],
  "textures": [
    {
      "sampler": 0,
      "source": 0
    },
    {
      "sampler": 0,
      "source": 1
    }
  ]
}
